:SAMPLES-PER-SECOND 30
:FULLY-SPECIFIED
:DEGREES
54
root  12.6691 39.6788 1.59547 12.5325 -84.939 -16.1694
RightUpLeg  4.00597 -10.4122 -12.9293
RightLeg  -0.313241 -11.591 -0.867313
RightFoot  7.12282 -2.558 15.9087
RightToes  -5.28226e-011 1.30204e-014 -6.03759e-014
Spine  6.5396 -0.716245 1.99846
Spine1  0.512795 -0.441343 -1.20528
HEad  -4.05894 -3.15016 -1.87687
LeftShoulder1  2.51975 -5.6135 -21.2207
LeftArm  4.64277 11.988 -52.6483
LeftForeArm  6.84655 -9.10764 -13.6912
LeftHand  -0.485273 -0.108514 10.3265
RightShoulder  1.70795 3.22276 18.9542
RightArm  2.95755 -8.72351 54.9148
RightForeArm  23.8927 5.88189 14.7897
RightHand  -0.171715 -4.12412 -14.6517
LeftUpLeg  3.74804 13.7022 17.3955
LeftLeg  1.48439 1.87846 1.7978
LeftFoot  3.2195 2.32519 -18.2219
LeftToes  -2.75829e-010 5.07641e-011 -5.51782e-011
55
root  12.6505 39.6815 1.60141 12.5655 -84.972 -16.1758
RightUpLeg  3.97113 -10.4424 -12.9607
RightLeg  -0.253205 -11.5533 -0.856158
RightFoot  7.08217 -2.55921 15.9448
RightToes  -5.28226e-011 1.30204e-014 -6.03759e-014
Spine  6.45494 -0.735315 2.05541
Spine1  0.64771 -0.435011 -1.32624
HEad  -4.1663 -3.29298 -1.79669
LeftShoulder1  2.51975 -5.65035 -21.1565
LeftArm  4.49339 12.1081 -52.6511
LeftForeArm  6.90933 -9.10661 -13.6737
LeftHand  -0.499458 -0.225215 10.4156
RightShoulder  1.73967 3.33255 19.014
RightArm  2.88241 -8.90189 54.9214
RightForeArm  23.9238 5.98461 14.7461
RightHand  -0.176121 -4.09201 -14.6944
LeftUpLeg  3.78512 13.6709 17.3727
LeftLeg  1.4333 1.97273 1.81666
LeftFoot  3.2508 2.33071 -18.2266
LeftToes  -2.75829e-010 5.07641e-011 -5.51782e-011
56
root  12.6319 39.6848 1.60476 12.8344 -85.0151 -16.4195
RightUpLeg  3.92453 -10.4464 -12.9551
RightLeg  -0.17272 -11.5115 -0.865237
RightFoot  7.07988 -2.55882 15.9636
RightToes  -5.28226e-011 1.30204e-014 -6.03759e-014
Spine  6.43155 -0.751051 2.12311
Spine1  0.675721 -0.426863 -1.45103
HEad  -4.14694 -3.34543 -1.75361
LeftShoulder1  2.51287 -5.63713 -21.1148
LeftArm  4.49684 12.2132 -52.5744
LeftForeArm  6.87854 -9.21137 -13.6196
LeftHand  -0.472734 -0.0630415 10.1386
RightShoulder  1.75718 3.3782 19.1064
RightArm  2.7925 -8.98901 54.8865
RightForeArm  24.0728 5.92906 14.756
RightHand  -0.182006 -4.04335 -14.6826
LeftUpLeg  3.834 13.6759 17.3841
LeftLeg  1.38402 1.92152 1.80919
LeftFoot  3.21072 2.32634 -18.2412
LeftToes  -2.75829e-010 5.07641e-011 -5.51782e-011
57
root  12.6166 39.6835 1.60192 13.2045 -85.0203 -16.7419
RightUpLeg  3.91388 -10.4067 -12.8995
RightLeg  -0.222247 -11.5224 -0.873405
RightFoot  7.08823 -2.55748 15.9746
RightToes  -5.28226e-011 1.30204e-014 -6.03759e-014
Spine  6.45762 -0.771923 2.15769
Spine1  0.614262 -0.441081 -1.5074
HEad  -4.07586 -3.31798 -1.77147
LeftShoulder1  2.48851 -5.55908 -21.0804
LeftArm  4.34231 12.2316 -52.4948
LeftForeArm  6.8592 -9.22415 -13.5974
LeftHand  -0.425835 0.346829 9.84497
RightShoulder  1.75346 3.33975 19.2031
RightArm  2.28744 -9.08407 54.8232
RightForeArm  24.4512 5.81603 14.7287
RightHand  -0.20143 -3.88635 -14.6834
LeftUpLeg  3.81701 13.7384 17.4362
LeftLeg  1.38484 1.85852 1.77008
LeftFoot  3.13636 2.30774 -18.1879
LeftToes  -2.75829e-010 5.07641e-011 -5.51782e-011
58
root  12.596 39.6801 1.59455 13.4386 -84.9015 -16.9378
RightUpLeg  3.96734 -10.3604 -12.8236
RightLeg  -0.287714 -11.6931 -0.875289
RightFoot  7.00588 -2.55185 16.0076
RightToes  -5.28226e-011 1.30204e-014 -6.03759e-014
Spine  6.48582 -0.814608 2.13916
Spine1  0.580282 -0.504365 -1.40878
HEad  -4.05054 -3.30258 -1.81958
LeftShoulder1  2.47069 -5.49238 -21.0861
LeftArm  4.1239 12.1929 -52.4436
LeftForeArm  6.91993 -9.19027 -13.5913
LeftHand  -0.400527 0.625722 9.77422
RightShoulder  1.73943 3.26532 19.2842
RightArm  1.38971 -9.31093 54.723
RightForeArm  24.61 5.83345 14.6106
RightHand  -0.228489 -3.67401 -14.742
LeftUpLeg  3.7535 13.7926 17.5189
LeftLeg  1.40681 1.81455 1.75384
LeftFoot  3.15359 2.31253 -18.2038
LeftToes  -2.75829e-010 5.07641e-011 -5.51782e-011
59
root  12.5679 39.68 1.58337 13.7235 -84.6798 -17.2278
RightUpLeg  4.02761 -10.3308 -12.7239
RightLeg  -0.158702 -11.9676 -0.893535
RightFoot  6.85978 -2.52986 15.9956
RightToes  -5.28226e-011 1.30204e-014 -6.03759e-014
Spine  6.54648 -0.865884 2.04741
Spine1  0.592234 -0.610165 -1.1076
HEad  -4.07638 -3.27173 -1.89496
LeftShoulder1  2.4752 -5.47938 -21.1818
LeftArm  4.21256 12.1703 -52.3776
LeftForeArm  7.00264 -9.29025 -13.5437
LeftHand  -0.412385 0.535714 9.88509
RightShoulder  1.7268 3.22097 19.2648
RightArm  0.277246 -9.63088 54.6468
RightForeArm  24.3308 5.93205 14.4538
RightHand  -0.240996 -3.57213 -14.7329
LeftUpLeg  3.71606 13.831 17.6493
LeftLeg  1.41601 1.53304 1.75558
LeftFoot  3.17621 2.34331 -18.4132
LeftToes  -2.75829e-010 5.07641e-011 -5.51782e-011
60
root  12.5456 39.6789 1.56206 14.586 -84.513 -18.0874
RightUpLeg  3.98033 -10.2626 -12.537
RightLeg  0.103834 -12.1576 -0.951889
RightFoot  6.71894 -2.49333 15.8889
RightToes  -5.28226e-011 1.30204e-014 -6.03759e-014
Spine  6.72418 -0.867883 1.90843
Spine1  0.485964 -0.687942 -0.702545
HEad  -4.14576 -3.0906 -2.02166
LeftShoulder1  2.48408 -5.46493 -21.3348
LeftArm  4.36194 12.1499 -52.2707
LeftForeArm  7.25329 -9.37664 -13.4976
LeftHand  -0.439881 0.274009 10.0305
RightShoulder  1.71733 3.22615 19.0913
RightArm  -1.17127 -9.98436 54.6587
RightForeArm  24.1596 5.95375 14.2825
RightHand  -0.240469 -3.55723 -14.5789
LeftUpLeg  3.68882 13.95 17.86
LeftLeg  1.43583 1.08225 1.70882
LeftFoot  3.04411 2.34795 -18.6107
LeftToes  -2.75829e-010 5.07641e-011 -5.51782e-011
61
root  12.5368 39.6707 1.52456 16.4763 -84.4783 -19.8931
RightUpLeg  3.74513 -10.1046 -12.2099
RightLeg  0.383063 -12.2632 -1.04983
RightFoot  6.46759 -2.44381 15.7925
RightToes  -5.28226e-011 1.30204e-014 -6.03759e-014
Spine  7.00159 -0.810332 1.88636
Spine1  0.189689 -0.680854 -0.441731
HEad  -4.30309 -2.73052 -2.13005
LeftShoulder1  2.47226 -5.3874 -21.4502
LeftArm  3.98167 12.0806 -52.1428
LeftForeArm  7.81321 -9.21199 -13.5154
LeftHand  -0.452015 0.119848 10.0186
RightShoulder  1.70828 3.22951 18.9318
RightArm  -2.72291 -10.3468 54.6458
RightForeArm  24.2541 5.98691 14.0734
RightHand  -0.25378 -3.43179 -14.4532
LeftUpLeg  3.58421 14.1695 18.1607
LeftLeg  1.48841 0.930364 1.64388
LeftFoot  2.9124 2.32915 -18.6287
LeftToes  -2.75829e-010 5.07641e-011 -5.51782e-011
62
root  12.5316 39.6557 1.46698 19.087 -84.48 -22.3926
RightUpLeg  3.25673 -9.92884 -11.8078
RightLeg  1.09267 -12.3839 -1.21201
RightFoot  5.86455 -2.36745 15.8251
RightToes  -5.28226e-011 1.30204e-014 -6.03759e-014
Spine  7.29887 -0.768481 2.05315
Spine1  -0.100808 -0.635218 -0.485686
HEad  -4.5527 -2.29838 -2.07649
LeftShoulder1  2.43396 -5.25664 -21.4258
LeftArm  3.32702 12.0238 -52.0636
LeftForeArm  8.20826 -9.04724 -13.5148
LeftHand  -0.445608 0.0512265 9.75635
RightShoulder  1.697 3.16459 19.0172
RightArm  -3.6481 -10.5345 54.4303
RightForeArm  24.0303 6.10306 13.9085
RightHand  -0.286607 -3.18176 -14.5814
LeftUpLeg  3.40885 14.3887 18.5336
LeftLeg  1.61857 1.00125 1.65399
LeftFoot  2.95032 2.36159 -18.8323
LeftToes  -2.75829e-010 5.07641e-011 -5.51782e-011
63
root  12.5249 39.6319 1.38934 21.0918 -84.4584 -24.4286
RightUpLeg  2.5828 -9.86554 -11.5035
RightLeg  2.61183 -12.3442 -1.47363
RightFoot  4.90302 -2.2581 15.9654
RightToes  -5.28226e-011 1.30204e-014 -6.03759e-014
Spine  7.69414 -0.772354 2.16712
Spine1  -0.229951 -0.620632 -0.613928
HEad  -4.83342 -1.89312 -1.85071
LeftShoulder1  2.37911 -5.12895 -21.1862
LeftArm  3.1594 12.0784 -52.1277
LeftForeArm  7.8503 -9.25361 -13.406
LeftHand  -0.44353 -0.0964881 9.46264
RightShoulder  1.67913 3.03594 19.2641
RightArm  -3.93735 -10.3669 54.0949
RightForeArm  23.5702 6.06294 13.8894
RightHand  -0.30811 -3.0552 -14.891
LeftUpLeg  3.32571 14.6002 18.9575
LeftLeg  1.9075 0.681441 1.6591
LeftFoot  2.84541 2.44662 -19.635
LeftToes  -2.75829e-010 5.07641e-011 -5.51782e-011
64
root  12.5306 39.5678 1.28903 20.5239 -84.4374 -24.0991
RightUpLeg  1.72652 -9.90311 -11.4493
RightLeg  4.99672 -11.9645 -1.94084
RightFoot  3.55324 -2.10944 16.2274
RightToes  -5.28226e-011 1.30204e-014 -6.03759e-014
Spine  8.36528 -0.75655 1.8859
Spine1  -0.328375 -0.631216 -0.471235
HEad  -5.16448 -1.59763 -1.6084
LeftShoulder1  2.32798 -5.05159 -20.8144
LeftArm  3.46416 12.1605 -52.2649
LeftForeArm  6.97313 -9.67883 -13.2461
LeftHand  -0.455554 -0.311384 9.36923
RightShoulder  1.65348 2.91521 19.355
RightArm  -4.38678 -10.1 53.9416
RightForeArm  23.5988 5.86047 13.8956
RightHand  -0.296518 -3.17139 -15.0451
LeftUpLeg  3.18488 14.9461 19.3808
LeftLeg  2.82461 -0.0633523 1.46843
LeftFoot  2.09264 2.46471 -20.8378
LeftToes  -2.75829e-010 5.07641e-011 -5.51782e-011
65
root  12.5596 39.4399 1.18606 17.0865 -84.1428 -20.9525
RightUpLeg  0.657234 -9.84969 -11.5551
RightLeg  8.02116 -11.8023 -2.68889
RightFoot  1.83823 -1.92129 16.6348
RightToes  -5.28226e-011 1.30204e-014 -6.03759e-014
Spine  9.24098 -0.806787 1.48228
Spine1  -0.496234 -0.718354 -0.0583403
HEad  -5.67306 -1.50806 -1.42464
LeftShoulder1  2.299 -5.01615 -20.5717
LeftArm  4.01812 12.0745 -52.169
LeftForeArm  5.99841 -10.2126 -13.0382
LeftHand  -0.465477 -0.461914 9.33885
RightShoulder  1.62704 2.84397 19.2182
RightArm  -5.05417 -10.1512 54.0792
RightForeArm  23.8112 5.97976 13.7476
RightHand  -0.275546 -3.31568 -14.8914
LeftUpLeg  2.23551 15.3202 19.7523
LeftLeg  5.19725 -0.976377 1.10643
LeftFoot  0.751166 2.36138 -22.097
LeftToes  -2.75829e-010 5.07641e-011 -5.51782e-011
66
root  12.5994 39.2558 1.12217 13.3374 -83.0084 -17.3572
RightUpLeg  -0.562924 -9.62154 -11.5633
RightLeg  11.5639 -12.6572 -3.71021
RightFoot  0.107721 -1.71832 17.0304
RightToes  -5.28226e-011 1.30204e-014 -6.03759e-014
Spine  9.99316 -1.21501 1.56547
Spine1  -0.563522 -1.09809 0.331119
HEad  -6.36136 -1.62059 -1.19768
LeftShoulder1  2.28502 -4.96722 -20.5617
LeftArm  5.53826 11.8261 -51.7201
LeftForeArm  4.43545 -11.3697 -12.5513
LeftHand  -0.472601 -0.56285 9.32805
RightShoulder  1.60551 2.78917 19.0902
RightArm  -5.05939 -10.4223 54.2864
RightForeArm  23.1291 6.60874 13.529
RightHand  -0.276647 -3.27584 -14.6741
LeftUpLeg  -0.347477 14.4999 20.0853
LeftLeg  9.71107 -2.31682 0.517828
LeftFoot  -0.826308 2.18931 -23.4537
LeftToes  -2.75829e-010 5.07641e-011 -5.51782e-011
67
root  12.63 39.0075 1.11895 11.4256 -80.9908 -15.5316
RightUpLeg  -1.76037 -9.5155 -11.4348
RightLeg  15.5776 -14.1001 -4.90968
RightFoot  -1.40086 -1.5243 17.2928
RightToes  -5.28226e-011 1.30204e-014 -6.03759e-014
Spine  10.5789 -1.97112 1.99746
Spine1  -0.48984 -1.81703 0.684059
HEad  -6.97104 -1.87548 -0.872737
LeftShoulder1  2.2678 -4.90744 -20.5475
LeftArm  8.09357 11.5877 -51.3215
LeftForeArm  1.83216 -13.1969 -11.6848
LeftHand  -0.506259 -0.688057 9.78424
RightShoulder  1.58673 2.71401 19.0981
RightArm  -4.38615 -10.6114 54.2102
RightForeArm  21.7186 7.34221 13.3699
RightHand  -0.296208 -3.10161 -14.5717
LeftUpLeg  -4.37113 11.3102 20.5567
LeftLeg  16.17 -4.28274 -0.942148
LeftFoot  -2.62351 1.90733 -24.4688
LeftToes  -2.75829e-010 5.07641e-011 -5.51782e-011
